<svg xmlns="http://www.w3.org/2000/svg" xmlns:xlink="http://www.w3.org/1999/xlink" xml:space="preserve" x="0" y="0" version="1.1" viewBox="0 0 128.2 84.252" aria-hidden="true" focusable="false"> <path fill="#7BB1E0" d="M65.107 37.308c-.342 3.175-.684 6.726-1.024 9.9v-9.9h1.024"></path> <path fill="#A6C7E9" d="M66.199 26.655c-.204-.888-.376-1.775-.58-2.663 1.639 1.674 3.277 3.347 4.916 4.985a44.314 44.314 0 0 0-2.185-1.161c-.376-.205-.717-.376-1.093-.58-.341-.205-.682-.41-1.058-.581m-3.652-2.663c-1.64 1.674-3.278 3.347-4.917 4.985.717-.41 1.435-.785 2.151-1.161.375-.205.717-.376 1.092-.58.376-.205.718-.376 1.093-.581.171-.887.376-1.775.581-2.663"></path> <path fill="#7BB1E0" d="M66.199 26.655c-.171 1.673-.341 3.38-.512 5.053 0 .068 0 .137-.034.239-.479.035-.957.035-1.435.035h-.17v-9.355c.512.444 1.023.922 1.536 1.365.238.88.443 1.769.615 2.663m-.648-12.768-.103-.717c-.238 0-.478-.034-.716-.034h-.649v9.457a69.701 69.701 0 0 1 1.57-1.537c.136-.921.308-1.809.444-2.73-.17-1.469-.375-2.937-.546-4.439M64.083 2.04c.239 1.741.444 4.028.683 5.77h-.683V2.04z"></path> <path fill="#D2E2F4" d="M59.952 20.407c.854.205 1.707.444 2.595.648l-4.917-5.018c.376.717.785 1.468 1.161 2.185.376.752.785 1.468 1.161 2.185"></path> <path fill="#A6C7E9" d="M93.99 21.125c-4.199.546-8.911 1.126-13.109 1.673-2.072.271-4.143.544-6.214.819-2.117.273-4.199.546-6.316.785-.888-.137-1.81-.308-2.697-.443-.512-.444-1.024-.922-1.537-1.366 9.765-.478 20.075-.956 29.873-1.468m-41.823.887v.273c0 .376 0 .785.035 1.161.443.068.888.102 1.331.171 2.117.272 4.199.546 6.316.785.888-.137 1.81-.308 2.697-.444.513-.443 1.024-.922 1.537-1.365-3.961-.171-7.955-.376-11.916-.581m-9.866.136c0-.204 0-.409.034-.614-2.526-.137-5.599-.272-8.125-.409 2.492.341 5.564.683 8.091 1.023"></path> <path fill="#FFF" d="M78.764 27.509c.444 0 .888 0 1.331.034a.33.33 0 0 0-.307.239c-.034.204-.103.409-.137.58a6.515 6.515 0 0 1-1.195 2.254c-.546.683-1.229 1.263-2.082 1.774-.342.205-.684.41-1.059.581-.137.067-.238.102-.376.171-2.628 1.16-6.043 1.706-10.311 1.706h-.376c-2.491-.034-4.779-.272-6.828-.784a2.581 2.581 0 0 1-.478-.137c-1.946-.513-3.653-1.264-5.087-2.22-.137-.102-.308-.204-.444-.307a11.534 11.534 0 0 1-3.142-3.551c-.102-.205-.204-.376-.307-.581-.649-1.399-.99-2.97-.99-4.677 0-.308 0-.581.034-.854.103-1.639.513-3.107 1.263-4.404.137-.272.308-.546.479-.785.819-1.195 1.878-2.219 3.176-3.072a9.41 9.41 0 0 1 .989-.581c1.366-.751 2.902-1.331 4.644-1.774.478-.103.99-.239 1.502-.308a33.111 33.111 0 0 1 5.701-.479c.513 0 1.024 0 1.537.034 1.502.068 2.867.171 4.165.41.478.068.922.171 1.365.272 1.161.273 2.186.581 3.142.99.375.171.751.342 1.093.513.785.443 1.468.921 2.048 1.502.259.256.498.529.718.819.508.672.848 1.457.989 2.287.035.171.104.239.308.239l-1.331.034c.17 0 .272-.137.238-.308a4.427 4.427 0 0 0-.819-1.774c-.171-.239-.376-.513-.614-.717-.512-.513-1.127-.956-1.878-1.366a14.143 14.143 0 0 0-1.023-.512 16.382 16.382 0 0 0-3.005-.923c-.41-.102-.854-.171-1.332-.272a29.267 29.267 0 0 0-4.063-.376c-.479-.034-.99-.034-1.503-.034-1.979 0-3.858.171-5.564.478-.49.1-.979.202-1.468.308-1.673.409-3.176.99-4.438 1.673-.308.171-.614.376-.922.546-1.229.82-2.186 1.775-2.937 2.868-.171.239-.307.479-.443.718-.683 1.194-1.059 2.561-1.161 4.096-.034.273-.034.547-.034.82 0 1.639.308 3.072.888 4.369.104.171.171.376.273.547a10.33 10.33 0 0 0 2.902 3.312l.409.308c1.332.922 2.937 1.604 4.848 2.116.138.035.308.068.444.103 1.98.479 4.233.751 6.657.786h.376c4.199 0 7.511-.547 10.004-1.64.137-.068.239-.103.341-.171.342-.171.683-.341.99-.546a7.392 7.392 0 0 0 1.878-1.604 5.881 5.881 0 0 0 1.127-2.321c.101-.272-.035-.409-.205-.409m-58.075-6.555H1.673c-.034 0-.171 0-.171-.068s.102-.103.137-.137c.068-.034.102-.068.171-.068 19.836-8.809 38.443-15.09 55.786-18.88-11.881 4.882-23.25 11.027-34.175 18.368-.137.102-.648.375-.581.648.068.273.649.273.82.273-.99-.068-1.98-.136-2.971-.136"></path> <defs> <path id="SVGID_1_" d="M104.506 21.091c.068 0 .239 0 .376-.035-.137.035-.239.035-.376.035M70.604 1.801c11.847 4.882 23.25 11.027 34.175 18.401.137.104.648.376.58.649-.034.171-.239.204-.443.239.854-.068 1.74-.137 2.595-.137h19.016c.035 0 .172 0 .172-.068s-.103-.103-.137-.137a.578.578 0 0 0-.171-.068c-19.87-8.808-38.478-15.089-55.787-18.879z"></path> </defs> <clipPath id="SVGID_2_"> <use xlink:href="#SVGID_1_" overflow="visible"></use> </clipPath> <linearGradient id="SVGID_3_" x1="-283.17" x2="-279.051" y1="152.535" y2="152.535" gradientTransform="matrix(0 -4.6908 -4.6908 0 814.158 -1307.166)" gradientUnits="userSpaceOnUse"> <stop offset="0" stop-color="#aaabab"></stop> <stop offset=".749" stop-color="#fff"></stop> <stop offset="1" stop-color="#fff"></stop> </linearGradient> <path fill="url(#SVGID_3_)" d="M70.604 1.801h56.094v19.324H70.604V1.801z" clip-path="url(#SVGID_2_)"></path> <path fill="#015794" d="M47.934 9.039c-.904.606-1.803 1.221-2.697 1.843-.989.684-1.98 1.366-2.97 2.083m37.964-3.926c.904.606 1.803 1.221 2.697 1.843.99.684 1.98 1.366 2.971 2.083"></path> <path fill="#3C87BC" d="M52.338 20.612s0-.034 0 0c.103-.443.205-.854.342-1.263.137-.342.273-.684.444-.99a7.17 7.17 0 0 1 .888-1.365 8.344 8.344 0 0 1 1.604-1.503c.648-.478 1.399-.853 2.151-1.194.717-.308 1.468-.513 2.219-.684a20.262 20.262 0 0 1 2.458-.376c.103 0 .171 0 .273-.034-.035.239-.068.479-.103.684-.171 1.468-.376 2.97-.547 4.438-.785-.409-1.57-.819-2.39-1.229-.683-.342-1.4-.717-2.083-1.059.376.717.785 1.468 1.161 2.186.375.717.785 1.468 1.16 2.185l-7.577.204M63.81.537c-1.346.246-2.689.508-4.028.785a2.251 2.251 0 0 0-.922.41c-.171.137-.376.239-.546.375-.342.239-.717.479-1.059.752-.376.272-.752.512-1.161.785-.308.205-.614.444-.956.648-2.39 1.605-4.813 3.176-7.204 4.78a209.796 209.796 0 0 0-5.701 3.892c-1.912 1.332-3.755 2.731-5.599 4.131-1.707 1.332-3.414 2.663-5.053 4.063a.484.484 0 0 0-.103.138 73.299 73.299 0 0 0 2.731-.138c2.561-.067 5.633-.136 8.193-.238a11.88 11.88 0 0 1 .683-2.834 11.742 11.742 0 0 1 2.049-3.516c.471-.574.997-1.1 1.57-1.57a17.385 17.385 0 0 1 1.57-1.195c.249-.18.512-.339.785-.479a21.987 21.987 0 0 1 2.697-1.331c2.288-.922 4.712-1.502 7.17-1.81 1.502-.205 3.004-.273 4.506-.308.239-1.741.444-4.029.683-5.77V.571c-.135-.067-.203-.067-.305-.034"></path> <path fill="#14477C" d="M31.58 21.5c-.068-.068-.137-.137-.102-.239a71.153 71.153 0 0 0 2.73-.137c2.526.342 5.6.684 8.092 1.024v.683c.034 1.195.171 2.39.512 3.517a11.233 11.233 0 0 0 1.605 3.346 13.437 13.437 0 0 0 2.697 2.868c1.229.956 2.561 1.775 3.994 2.39a24.91 24.91 0 0 0 4.678 1.502c1.81.41 3.687.648 5.53.752.58.034 1.195.067 1.775.067.341 3.176.683 6.727 1.023 9.901v3.004c-.17 0-.307-.102-.443-.17C51.314 41.302 40.628 31.776 31.58 21.5m20.691 2.629c.067.479.17.956.307 1.4.103.341.239.683.41 1.024.171.375.409.785.648 1.126.341.479.717.922 1.161 1.332.504.477 1.066.89 1.673 1.229.819.479 1.673.82 2.595 1.059 1.126.308 2.287.513 3.447.58 0-.067 0-.137-.034-.204-.171-1.673-.341-3.38-.512-5.053-.376.204-.717.375-1.093.58s-.717.376-1.093.58c-.717.376-1.434.785-2.15 1.161.378-.756.742-1.519 1.093-2.287.375-.752.751-1.502 1.126-2.287a357.09 357.09 0 0 1-6.316-.786c-.443-.067-.888-.103-1.331-.171 0 .274.034.512.069.717"></path> <path fill="#A6C7E9" d="M68.214 20.407c-.853.205-1.707.444-2.595.648l4.917-5.018c-.376.717-.786 1.468-1.161 2.185-.367.74-.754 1.468-1.161 2.185m-8.262 0c.854.205 1.707.444 2.595.648l-4.917-5.018c.376.717.785 1.468 1.161 2.185.376.752.785 1.468 1.161 2.185"></path> <path fill="#0C1E43" d="M64.083 37.308h-1.024c.342 3.175.684 6.726 1.024 9.9v-9.9zm-1.571-16.252a68.988 68.988 0 0 0 1.571 1.537v-9.457c-.444 0-.922.034-1.366.068-.034.239-.068.479-.102.683-.171 1.468-.376 2.971-.547 4.438.171.922.308 1.844.444 2.731"></path> <path fill="#071639" d="M64.083 22.627c-.512-.512-1.024-1.024-1.57-1.536-.854-.205-1.707-.444-2.595-.648-2.561.067-5.087.136-7.613.204-.103.479-.137.922-.171 1.4 3.994.17 7.988.375 11.949.58m-1.571-1.571c-.136-.921-.307-1.809-.443-2.73-.785-.41-1.57-.819-2.39-1.229-.684-.341-1.4-.717-2.083-1.058a327.649 327.649 0 0 1 4.916 5.017m-20.11-.17c-.033.171-.033.341-.033.479v.135a625.29 625.29 0 0 1-8.16-.375c2.526-.069 5.634-.137 8.193-.239m21.681 16.422h-1.024c.342 3.175.684 6.726 1.024 9.9v-9.9zm4.131-16.901c-.853.205-1.707.444-2.595.648a65.719 65.719 0 0 1-1.57 1.537c9.799-.513 20.109-.99 29.908-1.502-4.199-.137-8.945-.239-13.11-.376l-12.633-.307"></path> <path fill="#071639" d="M65.653 21.056c.136-.921.308-1.809.444-2.73.784-.41 1.57-.819 2.389-1.229.684-.341 1.4-.717 2.084-1.058-1.674 1.672-3.278 3.345-4.917 5.017"></path> <path fill="#172D56" d="M64.083 2.04c-.239 1.741-.444 4.028-.683 5.77h.683V2.04z"></path> <path fill="#071639" d="M57.63 28.978c.376-.752.752-1.537 1.127-2.288s.751-1.502 1.127-2.287c.888-.137 1.81-.308 2.697-.443-1.674 1.671-3.312 3.345-4.951 5.018m12.905 0a69.411 69.411 0 0 1-1.092-2.288c-.377-.751-.752-1.502-1.127-2.287-.889-.137-1.81-.308-2.697-.443 1.639 1.671 3.277 3.345 4.916 5.018"></path> <path fill="#071639" d="M62.547 23.992c-.205.888-.376 1.775-.581 2.663.171 1.673.342 3.38.513 5.053 0 .068 0 .137.034.205.546.034 1.059.068 1.604.068v-9.354c-.539.436-1.063.893-1.57 1.365"></path> <defs> <path id="SVGID_4_" d="M59.235 11.463c-.49.099-.979.201-1.468.307-1.674.41-3.176.99-4.438 1.674-.308.171-.615.375-.922.546a10.69 10.69 0 0 0-2.937 2.868c-.171.238-.307.478-.443.717a6.105 6.105 0 0 1-.239.444c-.204.409-.103.58.308.716.802.259 1.599.532 2.39.82.376.136.478.239.41.683.067-.376.171-.752.308-1.093a5.8 5.8 0 0 1 .478-1.059c.137-.239.273-.512.444-.751l.512-.717a8.552 8.552 0 0 1 1.707-1.605 10.42 10.42 0 0 1 2.254-1.229 14.77 14.77 0 0 1 2.288-.718 20.52 20.52 0 0 1 2.526-.375c.375-.034.785-.068 1.16-.068h1.161c.272 0 .546 0 .819.034.546.034 1.127.068 1.673.137.751.103 1.468.239 2.185.409.683.171 1.4.41 2.049.717.308.137.614.308.922.513.307.171.58.409.854.614.272.239.512.479.751.785.103.137.204.273.308.444.171.273.341.58.443.922a.258.258 0 0 0 .239.171c1.264-.034 2.526-.034 3.823-.068.172 0 .274-.137.24-.308-.137-.648-.41-1.229-.82-1.81-.171-.239-.375-.512-.614-.717-.513-.512-1.127-.956-1.878-1.365a7.063 7.063 0 0 0-1.024-.479A16.396 16.396 0 0 0 71.7 11.7c-.41-.103-.854-.171-1.332-.272a29.13 29.13 0 0 0-4.063-.376c-.479-.034-.99-.034-1.503-.034-2.016.002-3.861.137-5.567.445"></path> </defs> <clipPath id="SVGID_5_"> <use xlink:href="#SVGID_4_" overflow="visible"></use> </clipPath> <linearGradient id="SVGID_6_" x1="-370.787" x2="-366.67" y1="95.113" y2="95.113" gradientTransform="matrix(.5025 -2.8501 -2.8501 -.5025 520.1 -986.83)" gradientUnits="userSpaceOnUse"> <stop offset="0" stop-color="#231815"></stop> <stop offset=".283" stop-color="#231815"></stop> <stop offset="1" stop-color="#727172"></stop> </linearGradient> <path fill="url(#SVGID_6_)" d="m47.013 19.998 2.492-14.203 31.171 5.497-2.492 14.203-31.171-5.497z" clip-path="url(#SVGID_5_)"></path> <path fill="#231815" d="M75.009 17.881a.738.738 0 0 1-.718-.512 4.538 4.538 0 0 0-.409-.819 4.885 4.885 0 0 0-.956-1.093 6.586 6.586 0 0 0-1.674-1.059c-.613-.308-1.297-.513-1.945-.683a22.723 22.723 0 0 0-2.117-.41c-.819-.103-1.639-.136-2.457-.171-.752 0-1.503 0-2.288.068-.819.068-1.639.205-2.458.376a16.68 16.68 0 0 0-2.219.683c-.752.308-1.503.717-2.151 1.195-.614.443-1.161.922-1.604 1.502-.347.42-.645.878-.888 1.365a8.643 8.643 0 0 0-.444.99c-.136.409-.272.819-.342 1.229a9.363 9.363 0 0 0-.171 1.707c0 .614 0 1.263.104 1.877.067.479.17.956.341 1.4.103.341.239.683.409 1.024.171.409.41.785.649 1.126a8.53 8.53 0 0 0 1.16 1.332c.505.477 1.066.89 1.673 1.229.803.465 1.664.82 2.562 1.058 1.673.479 3.447.648 5.224.648 1.058 0 2.116-.068 3.175-.204a13.363 13.363 0 0 0 2.321-.513 10.93 10.93 0 0 0 1.639-.648c.409-.205.82-.479 1.195-.751.308-.239.615-.513.854-.82.375-.478.682-.989.853-1.57.103-.307.409-.546.752-.512 2.799.034 5.599.102 8.397.137.343 0 .547.307.479.614a11.225 11.225 0 0 1-1.024 2.562c-.408.687-.89 1.327-1.434 1.911-.512.546-1.127 1.024-1.741 1.469-.444.307-.922.614-1.434.853a25.9 25.9 0 0 1-2.22 1.024 25.616 25.616 0 0 1-5.292 1.366c-2.15.341-4.37.478-6.521.478-.99 0-1.98-.034-2.97-.103a33.676 33.676 0 0 1-5.531-.751c-1.604-.342-3.175-.819-4.677-1.503-1.435-.614-2.766-1.434-3.995-2.39a13.48 13.48 0 0 1-2.697-2.867c-.717-1.024-1.229-2.151-1.604-3.38-.342-1.161-.478-2.322-.513-3.517 0-.479 0-.956.035-1.434.102-1.127.307-2.254.717-3.346a11.722 11.722 0 0 1 2.049-3.518c.471-.573.996-1.099 1.57-1.57a17.233 17.233 0 0 1 1.57-1.194c.249-.18.512-.34.785-.479.867-.505 1.769-.95 2.697-1.332 2.287-.922 4.711-1.502 7.169-1.81a37.627 37.627 0 0 1 4.814-.307c1.16 0 2.287 0 3.448.067 1.229.068 2.39.205 3.618.376.752.137 1.537.273 2.288.478.717.171 1.467.376 2.15.649a20.82 20.82 0 0 1 2.015.819c.308.137.614.272.922.443.341.171.716.376 1.058.581.273.171.581.342.854.512.58.376 1.093.819 1.604 1.298.239.238.478.512.718.785a7.566 7.566 0 0 1 1.023 1.673c.25.524.444 1.074.581 1.639.067.308-.172.615-.479.615-2.832.005-5.666.075-8.499.108m-.239 9.73a4.841 4.841 0 0 1-.956 1.741c-.272.341-.581.65-.923.923-.411.305-.845.578-1.297.818-.547.277-1.118.506-1.707.684-.784.238-1.604.409-2.39.512a25.85 25.85 0 0 1-3.243.205c-1.775 0-3.619-.171-5.36-.683-.479-.137-.922-.308-1.365-.479-.444-.171-.888-.409-1.332-.648a9.464 9.464 0 0 1-1.775-1.297 9.846 9.846 0 0 1-1.229-1.4 5.996 5.996 0 0 1-.683-1.195 5.922 5.922 0 0 1-.41-1.093 7.395 7.395 0 0 1-.341-1.502c-.103-.648-.138-1.297-.103-1.946 0-.204 0-.409.034-.58.034-.409.068-.785.171-1.195.102-.443.205-.888.376-1.331.136-.376.272-.718.443-1.059.137-.239.273-.513.444-.752l.512-.717a8.552 8.552 0 0 1 1.707-1.604 10.354 10.354 0 0 1 2.254-1.229c.742-.301 1.507-.54 2.287-.717a20.375 20.375 0 0 1 2.527-.376c.375-.034.785-.068 1.16-.068h1.161c.272 0 .546 0 .854.035.546.034 1.127.068 1.673.136.751.104 1.468.239 2.186.41.683.171 1.399.409 2.048.717.308.137.614.308.922.512.308.171.58.41.854.615.409.341.751.751 1.058 1.229.171.272.343.58.444.921.036.102.132.17.239.171 2.834-.034 5.668-.103 8.501-.136a7.441 7.441 0 0 0-.547-1.537c-.272-.546-.58-1.093-.989-1.57a6.828 6.828 0 0 0-.649-.751 10.547 10.547 0 0 0-1.502-1.229l-.819-.512a14.54 14.54 0 0 0-1.024-.546c-.307-.137-.579-.273-.887-.41-.649-.308-1.297-.546-1.98-.785a21.806 21.806 0 0 0-2.117-.614c-.751-.171-1.502-.342-2.253-.443-1.195-.205-2.391-.308-3.586-.376a36.849 36.849 0 0 0-3.416-.07c-1.604.034-3.175.103-4.745.308a31.654 31.654 0 0 0-3.585.648c-1.195.308-2.355.648-3.449 1.126-.887.376-1.774.786-2.628 1.298l-.512.308c-.068.034-.104.068-.171.103a.073.073 0 0 0-.068.068 18 18 0 0 0-1.537 1.16c-.546.479-1.059.99-1.502 1.537-.854 1.024-1.503 2.117-1.946 3.38a11.212 11.212 0 0 0-.683 3.209c-.034.478-.068.922-.034 1.399.034 1.161.171 2.288.478 3.38a11.094 11.094 0 0 0 1.537 3.209c.717 1.059 1.604 1.947 2.595 2.731 1.194.956 2.492 1.707 3.892 2.322a23.942 23.942 0 0 0 4.575 1.468c1.775.375 3.619.614 5.429.751a45.592 45.592 0 0 0 9.389-.341 24.69 24.69 0 0 0 5.189-1.365 15.392 15.392 0 0 0 2.15-.99c.479-.273.956-.546 1.399-.819.376-.273.786-.58 1.127-.888l.512-.513c.172-.17.343-.375.514-.58.314-.388.6-.798.853-1.229a8.737 8.737 0 0 0 .956-2.425c-2.8-.034-5.6-.103-8.398-.137-.174-.068-.276.001-.309.103"></path> <path fill="#14477C" d="M64.083 2.04c.239 1.741.444 4.028.683 5.77.785 0 1.571.034 2.356.068a41.6 41.6 0 0 1 3.618.376c.752.136 1.537.272 2.287.443.718.171 1.469.376 2.151.648.685.238 1.357.512 2.015.82.307.136.614.272.921.443.342.171.718.376 1.059.581.273.171.581.341.854.512.58.376 1.093.819 1.604 1.298.24.238.478.512.718.785a7.529 7.529 0 0 1 1.023 1.673c.25.524.444 1.073.581 1.639a.507.507 0 0 1-.479.614c-2.834.034-5.667.103-8.501.137a.738.738 0 0 1-.717-.513 4.604 4.604 0 0 0-.409-.819 4.884 4.884 0 0 0-.957-1.092c-.478-.444-1.059-.785-1.672-1.06-.614-.307-1.298-.512-1.946-.682a20.813 20.813 0 0 0-2.117-.41c-.58-.068-1.16-.102-1.707-.137l.103.717c.172 1.469.376 2.971.547 4.438.793-.417 1.589-.826 2.389-1.229.684-.342 1.4-.718 2.084-1.06-.375.718-.785 1.469-1.161 2.186-.375.717-.785 1.468-1.161 2.185 4.233.103 8.434.205 12.633.342s8.945.239 13.109.376a71.1 71.1 0 0 1 2.731.136c0-.068-.068-.102-.103-.136a188.624 188.624 0 0 0-5.053-4.063 158.746 158.746 0 0 0-5.599-4.131 212.889 212.889 0 0 0-5.701-3.893c-2.391-1.604-4.814-3.175-7.204-4.779-.308-.205-.648-.409-.956-.648-.375-.273-.785-.513-1.161-.785-.341-.239-.716-.479-1.059-.752-.171-.136-.375-.238-.546-.375a2.24 2.24 0 0 0-.922-.41C67.053.981 65.722.707 64.39.468c-.103-.034-.17-.034-.272-.034v1.604l-.035.002z"></path> <path fill="#0C1E43" d="M64.083 50.248c.171 0 .308-.104.444-.172C76.852 41.336 87.538 31.812 96.62 21.5c.067-.068.136-.137.102-.239a71.205 71.205 0 0 1-2.731-.137c-4.199.546-8.911 1.127-13.109 1.673-2.072.271-4.143.544-6.214.82-2.117.272-4.199.546-6.316.785.376.751.752 1.502 1.127 2.287.378.756.742 1.519 1.093 2.287-.718-.375-1.435-.785-2.151-1.161-.376-.204-.717-.375-1.093-.58s-.717-.376-1.092-.58c-.172 1.707-.342 3.38-.513 5.053 0 .068 0 .137-.034.239.58-.034 1.161-.103 1.74-.171a13.333 13.333 0 0 0 2.322-.513 10.93 10.93 0 0 0 1.639-.648c.41-.205.819-.479 1.195-.751.307-.239.614-.513.854-.819.376-.479.683-.99.854-1.57.103-.308.409-.547.751-.513 2.8.034 5.599.103 8.398.137.342 0 .547.308.479.614a11.225 11.225 0 0 1-1.024 2.562c-.408.687-.89 1.327-1.434 1.911-.513.546-1.127 1.024-1.741 1.468a9.887 9.887 0 0 1-1.434.854c-.718.379-1.459.71-2.22.99-1.707.648-3.482 1.093-5.292 1.399-1.878.308-3.79.41-5.667.444-.342 3.175-.684 6.726-1.024 9.901v3.006h-.002z"></path> <defs> <path id="SVGID_7_" d="M46.603 19.69c-1.024.308-1.98.615-2.902.99-.614.239-.785.068-.683-.58-.068.443-.137.888-.171 1.331-.034.479-.068.922-.034 1.4.034 1.16.171 2.287.479 3.38.341 1.16.819 2.219 1.536 3.209.717 1.059 1.604 1.946 2.595 2.731 1.195.956 2.492 1.707 3.892 2.321a23.922 23.922 0 0 0 4.575 1.469c1.774.375 3.619.614 5.429.751a45.567 45.567 0 0 0 9.388-.341 24.776 24.776 0 0 0 5.19-1.365 15.278 15.278 0 0 0 2.15-.99c.479-.273.956-.546 1.399-.819.376-.272.786-.58 1.127-.888l.512-.512a10.018 10.018 0 0 0 1.367-1.81c.444-.751.752-1.57.956-2.424-1.093-.034-2.219-.034-3.312-.068a.33.33 0 0 0-.308.239c-.034.205-.103.409-.137.58a6.519 6.519 0 0 1-1.195 2.253c-.546.684-1.229 1.264-2.082 1.775-.341.205-.684.41-1.059.581-.137.067-.239.103-.375.171-2.63 1.16-6.043 1.707-10.312 1.707h-.375c-2.492-.034-4.78-.273-6.829-.786a2.503 2.503 0 0 1-.478-.136c-1.946-.513-3.653-1.264-5.087-2.22-.137-.103-.308-.204-.444-.307a11.534 11.534 0 0 1-3.142-3.551c-.102-.205-.204-.376-.307-.581-.649-1.399-.99-2.97-.99-4.677 0-.308 0-.581.034-.854.034-.479.103-.956.171-1.434.103-.444 0-.649-.272-.649-.033.036-.136.036-.306.104"></path> </defs> <clipPath id="SVGID_8_"> <use xlink:href="#SVGID_7_" overflow="visible"></use> </clipPath> <linearGradient id="SVGID_9_" x1="-276.398" x2="-272.281" y1="186.992" y2="186.992" gradientTransform="scale(-5.0628 5.0628) rotate(-79.999 -251.611 -59.888)" gradientUnits="userSpaceOnUse"> <stop offset="0" stop-color="#727172"></stop> <stop offset="1" stop-color="#241916"></stop> </linearGradient> <path fill="url(#SVGID_9_)" d="m44.008 43.76-4.165-23.625 42.334-7.477 4.166 23.625-42.335 7.477z" clip-path="url(#SVGID_8_)"></path> <path fill="#231815" d="M64.458.025c1.331.239 2.697.512 4.063.785.41.068.785.239 1.093.479.171.136.376.238.546.375.342.239.718.479 1.06.752.375.272.75.512 1.16.785.308.204.648.409.956.648 2.39 1.604 4.813 3.175 7.203 4.779a155.952 155.952 0 0 1 5.702 3.927 133.63 133.63 0 0 1 5.633 4.165 296.622 296.622 0 0 1 5.087 4.063c.342.342.376.717.068 1.093-9.081 10.311-19.836 19.87-32.16 28.645-.581.409-.889.409-1.435 0-12.358-8.774-23.079-18.3-32.194-28.645-.342-.376-.308-.751.068-1.093 1.673-1.399 3.345-2.765 5.087-4.063 1.844-1.434 3.722-2.8 5.633-4.165 1.878-1.332 3.79-2.629 5.701-3.927 2.391-1.604 4.814-3.175 7.204-4.779.321-.213.64-.429.956-.648.376-.273.785-.513 1.16-.785.342-.239.718-.479 1.06-.752.17-.136.375-.239.546-.375.341-.239.717-.376 1.126-.479 1.366-.273 2.697-.546 4.063-.785.102-.034.376-.034.614 0m3.756.751C66.985.537 65.756.298 64.562.059m-4.781 1.263a2.251 2.251 0 0 0-.922.41c-.171.137-.376.239-.546.375-.342.239-.717.479-1.059.752-.376.272-.785.512-1.161.785-.308.205-.648.41-.956.648-2.39 1.605-4.813 3.176-7.204 4.78a209.796 209.796 0 0 0-5.701 3.892c-1.912 1.332-3.755 2.731-5.599 4.131-1.707 1.332-3.414 2.663-5.053 4.063-.137.138-.103.239 0 .376 9.081 10.277 19.768 19.802 32.093 28.576.136.103.239.172.409.172s.308-.104.444-.172c12.324-8.739 23.011-18.266 32.093-28.576.102-.137.136-.238 0-.376a194.382 194.382 0 0 0-5.054-4.063 158.746 158.746 0 0 0-5.599-4.131 210.525 210.525 0 0 0-5.701-3.892c-2.391-1.604-4.814-3.175-7.204-4.78a42.484 42.484 0 0 1-.956-.648c-.375-.273-.784-.512-1.161-.785-.341-.239-.716-.479-1.059-.752-.171-.136-.375-.238-.546-.375a2.234 2.234 0 0 0-.922-.41c-1.365-.272-2.696-.546-4.028-.785a1.518 1.518 0 0 0-.546 0c-1.364.239-2.731.513-4.062.785M63.605.06c-1.229.239-2.425.478-3.653.717"></path> <defs> <path id="SVGID_10_" d="M63.707 8.321c-1.604.034-3.175.103-4.746.308-1.194.171-2.424.375-3.584.648a19.388 19.388 0 0 0-3.448 1.127c-.888.375-1.775.785-2.629 1.297l-.513.308c-.068.034-.103.068-.171.102-.034.035-.067.035-.067.068-.547.376-1.06.752-1.537 1.161-.546.478-1.059.99-1.502 1.536-.854 1.024-1.502 2.117-1.946 3.38-.238.615-.375 1.229-.512 1.845-.103.648.068.785.683.58a48.122 48.122 0 0 1 2.902-.99c.58-.171.751 0 .648.58a9.863 9.863 0 0 1 1.093-3.004c.137-.273.308-.513.478-.785.82-1.195 1.878-2.22 3.176-3.073.317-.214.648-.407.989-.58 1.332-.752 2.902-1.332 4.644-1.775.479-.103.99-.239 1.502-.308a33.118 33.118 0 0 1 5.702-.478c.512 0 1.023 0 1.536.034 1.502.067 2.868.17 4.166.409.478.068.921.171 1.365.272 1.16.273 2.185.581 3.142.99.375.171.751.342 1.092.513.785.443 1.468.921 2.049 1.502.258.256.497.529.716.819.509.673.849 1.457.991 2.287.033.137.17.239.307.239 1.127-.034 2.219-.034 3.346-.068a7.531 7.531 0 0 0-.546-1.536c-.273-.546-.58-1.093-.989-1.57a6.932 6.932 0 0 0-.649-.752 10.743 10.743 0 0 0-1.502-1.229l-.819-.513c-.342-.204-.684-.375-1.024-.545-.308-.138-.58-.273-.888-.41-.648-.308-1.298-.546-1.98-.785a21.812 21.812 0 0 0-2.117-.615c-.751-.17-1.502-.341-2.253-.443-1.195-.205-2.39-.308-3.585-.376-.921-.068-1.878-.068-2.834-.068-.31-.102-.481-.102-.686-.102"></path> </defs> <clipPath id="SVGID_11_"> <use xlink:href="#SVGID_10_" overflow="visible"></use> </clipPath> <linearGradient id="SVGID_12_" x1="-109.555" x2="-105.438" y1="112.342" y2="112.342" gradientTransform="matrix(9.8361 0 0 -9.8361 1120.583 1119.595)" gradientUnits="userSpaceOnUse"> <stop offset="0" stop-color="#fff"></stop> <stop offset=".444" stop-color="#c8c9ca"></stop> <stop offset="1" stop-color="#c8c9ca"></stop> </linearGradient> <path fill="url(#SVGID_12_)" d="M42.915 8.321H83.51v12.564H42.915V8.321z" clip-path="url(#SVGID_11_)"></path> <defs> <path id="SVGID_13_" d="M47.832 21.739c-.034.272-.034.546-.034.819 0 1.64.307 3.072.888 4.37.103.171.171.376.272.546a10.358 10.358 0 0 0 2.902 3.313l.41.307c1.331.922 2.936 1.604 4.848 2.117.137.034.308.068.443.102 1.98.479 4.2.752 6.658.786h.376c4.198 0 7.511-.547 10.003-1.64.137-.068.239-.103.342-.171.341-.171.683-.341.989-.546a7.378 7.378 0 0 0 1.878-1.604 5.87 5.87 0 0 0 1.126-2.322c.035-.17-.068-.307-.238-.307-1.264-.034-2.492-.034-3.756-.068a.254.254 0 0 0-.238.171 4.85 4.85 0 0 1-.956 1.741 4.524 4.524 0 0 1-.922.888c-.411.305-.846.579-1.298.819a10.41 10.41 0 0 1-1.707.683c-.784.239-1.604.41-2.389.513-1.076.137-2.16.205-3.244.204-1.775 0-3.619-.171-5.36-.683a15.64 15.64 0 0 1-1.365-.478c-.444-.171-.888-.41-1.332-.649a9.425 9.425 0 0 1-1.774-1.297 9.775 9.775 0 0 1-1.229-1.399 5.968 5.968 0 0 1-.683-1.195 10.266 10.266 0 0 1-.444-1.093c-.136-.478-.272-.99-.341-1.502a9.278 9.278 0 0 1-.103-1.946c0-.205 0-.409.034-.58.034-.41.068-.785.171-1.195 0-.068.034-.137.034-.239.103-.409-.034-.512-.409-.683-.854-.341-1.673-.58-2.391-.819-.409-.137-.512-.308-.307-.717a13.06 13.06 0 0 0-.854 3.754"></path> </defs> <clipPath id="SVGID_14_"> <use xlink:href="#SVGID_13_" overflow="visible"></use> </clipPath> <linearGradient id="SVGID_15_" x1="-318.748" x2="-314.633" y1="151.994" y2="151.994" gradientTransform="matrix(0 -3.8906 -3.8906 0 654.762 -1206.047)" gradientUnits="userSpaceOnUse"> <stop offset="0" stop-color="#c8c9ca"></stop> <stop offset="1" stop-color="#fff"></stop> </linearGradient> <path fill="url(#SVGID_15_)" d="M47.798 18.052h31.239v16.013H47.798V18.052z" clip-path="url(#SVGID_14_)"></path> <defs> <path id="SVGID_16_" d="M1.775 21.432h-.307c-.717 0-.546.273-.137.819.103.137.581.752.649.888.205.273.409.581.614.854.239.342.513.683.751 1.024.273.342.513.717.786 1.059.238.342.512.683.751 1.024.272.341.512.717.785 1.059.272.341.512.683.785 1.023.281.347.555.7.819 1.059.273.342.513.683.785 1.024l.819 1.024c.273.342.513.683.785.99.273.341.547.683.854 1.023.273.342.547.648.819.99.273.341.581.683.854 1.024.272.341.545.648.819.99.272.342.58.683.853 1.024.273.341.547.648.82.989.307.342.58.684.888 1.024.272.342.546.648.854.99.307.341.58.683.888 1.023.272.308.58.649.854.956.308.342.614.683.922.99.286.327.582.646.888.956.308.342.614.683.922.99.307.308.58.648.888.956.308.341.614.648.956.99.308.308.58.614.888.955.307.342.648.648.956.989.307.309.614.615.888.923.308.342.648.649.99.99l.922.921.99.99.921.922c.342.342.683.649.99.99.311.315.629.623.956.922.342.308.683.648 1.024.955.31.306.629.603.956.889.342.341.683.648 1.024.956.307.308.648.58.956.888.341.341.717.648 1.058.99.327.286.646.582.956.888.341.307.717.648 1.093.956.321.294.651.578.989.854.376.307.718.647 1.093.955.342.274.649.581.99.854.376.308.751.649 1.127.957.341.272.648.58.989.853.376.309.752.649 1.127.957.338.274.668.559.99.853l.717.615c1.195.99 2.424 2.015 3.653 3.005a334.83 334.83 0 0 0 13.725 10.378c.034.035.034.035.068.035h.034l.034-.035v-.341a.436.436 0 0 0-.137-.341c-.034-.034-.068-.103-.137-.137a208.06 208.06 0 0 1-4.404-5.258 6.384 6.384 0 0 1-.58-.751l-.034-.034c-.342-.444-.717-.888-1.059-1.332-.137-.171-.239-.308-.376-.479 0 0 0-.034-.034-.034-.273-.341-.58-.717-.854-1.059-.205-.238-.376-.478-.58-.716v-.034l-2.15-2.766c-.171-.239-.342-.443-.513-.684-.272-.375-.58-.751-.854-1.126-.171-.205-.308-.409-.479-.615-.307-.409-.614-.784-.888-1.195-.034-.033-.068-.103-.103-.137-.478-.614-.922-1.263-1.399-1.911-.171-.239-.342-.443-.513-.683-.341-.479-.717-.956-1.059-1.468-.103-.137-.171-.273-.272-.376a16.938 16.938 0 0 1-.684-.956c-.205-.308-.409-.581-.614-.888l-3.482-5.019c-.137-.205-.273-.41-.41-.581-.648-.956-1.297-1.911-1.911-2.867l-.615-.922c-.375-.614-.785-1.195-1.161-1.81-.033-.034-.033-.067-.067-.103-.205-.341-.41-.648-.615-.99-.205-.307-.376-.613-.58-.921-.308-.479-.615-.99-.922-1.468-.103-.137-.171-.308-.273-.444-.204-.342-.409-.648-.614-.989-.205-.309-.376-.616-.581-.923-.204-.341-.409-.648-.614-.989-.205-.308-.376-.649-.581-.956a217.74 217.74 0 0 1-1.74-2.937c-.171-.308-.376-.614-.547-.956-.204-.341-.409-.683-.58-.99-.171-.307-.376-.614-.546-.956-.239-.443-.512-.853-.751-1.297-.137-.205-.239-.443-.376-.648-.205-.342-.376-.683-.58-.99-.103-.171-.205-.375-.308-.546-.615-1.126-1.263-2.253-1.878-3.38-.171-.308-.341-.648-.512-.956a166.106 166.106 0 0 1-1.81-3.38c-.103-.205-.205-.376-.308-.58-.137-.273-.308-.547-.444-.819a.574.574 0 0 1-.103-.205c0-.034-.034-.034-.034-.068 0-.033-.034-.034-.034-.068 0-.033-.034-.068-.034-.102-.034-.103-.103-.205-.136-.273-.034-.034-.034-.068-.034-.102 0-.034-.035-.035-.035-.068l-.031-.035c-.376-.479-.718-.513-1.161-.513H1.775z"></path> </defs> <clipPath id="SVGID_17_"> <use xlink:href="#SVGID_16_" overflow="visible"></use> </clipPath> <linearGradient id="SVGID_18_" x1="-175.496" x2="-171.378" y1="180.659" y2="180.659" gradientTransform="scale(15.0984 -15.0984) rotate(90 6.42 176.377)" gradientUnits="userSpaceOnUse"> <stop offset="0" stop-color="#efeeee"></stop> <stop offset=".005" stop-color="#efeeee"></stop> <stop offset="1" stop-color="#3e3b3a"></stop> </linearGradient> <path fill="url(#SVGID_18_)" d="M.751 21.432H63.81v62.172H.751V21.432z" clip-path="url(#SVGID_17_)"></path> <defs> <path id="SVGID_19_" d="M126.391 21.432h-19.938c-.443 0-.751.034-.99.444-.033.068-.137.239-.238.443-.035.034-.035.068-.068.103-.342.649-.684 1.332-1.059 1.98-.137.273-.308.546-.444.819-.205.376-.409.785-.614 1.161-.171.308-.309.58-.479.888-.205.376-.409.717-.58 1.093-.205.376-.41.785-.649 1.161-.136.272-.307.546-.443.819-.272.479-.546.99-.819 1.468-.103.171-.171.342-.273.479-.272.478-.546.956-.819 1.468l-.308.512c-.307.513-.58 1.024-.888 1.537-.068.137-.171.272-.239.409-.307.546-.648 1.093-.956 1.64l-.204.307-.922 1.537c-.068.137-.171.272-.239.409-.352.6-.716 1.191-1.093 1.775-.034.068-.067.103-.103.171l-2.355 3.79-.034.034c-.409.614-.785 1.263-1.195 1.877 0 0 0 .035-.034.035-7.75 12.12-16.388 23.83-25.879 34.893-.034.034-.068.102-.137.136a.437.437 0 0 0-.136.342v.342s0 .034.034.034h.034c.034 0 .034 0 .068-.034l2.15-1.537c.273-.205.581-.409.854-.614.342-.272.717-.513 1.06-.786l1.125-.818c.206-.137.377-.272.581-.409.854-.648 1.707-1.264 2.526-1.912.171-.137.342-.273.547-.41.409-.307.818-.648 1.229-.956.272-.204.513-.409.785-.614.341-.273.717-.546 1.058-.853l1.537-1.229c.58-.444 1.127-.922 1.707-1.366.034-.034.068-.034.103-.068.58-.443 1.126-.922 1.673-1.365l.068-.068c.546-.479 1.127-.922 1.673-1.399l.067-.068c.55-.477 1.107-.943 1.674-1.4.033 0 .033-.034.068-.034.546-.478 1.092-.956 1.673-1.434.034 0 .034-.034.068-.068l1.639-1.434c.034 0 .034-.034.068-.034l1.639-1.435c.034 0 .034-.034.068-.034.546-.478 1.059-.956 1.604-1.434.034 0 .034-.034.068-.068a62.589 62.589 0 0 0 1.57-1.434l.068-.068 1.537-1.435.067-.067 1.537-1.435.068-.068c.512-.478.989-.955 1.502-1.434l.103-.103c.478-.478.989-.956 1.468-1.434l.103-.103 1.435-1.434.136-.137c.478-.479.921-.957 1.4-1.4l.136-.136c.443-.478.922-.923 1.366-1.4l.17-.17a51.52 51.52 0 0 0 1.332-1.4.93.93 0 0 0 .171-.204c.444-.444.854-.923 1.297-1.366l.205-.205 1.229-1.331c.068-.068.136-.171.238-.239.41-.443.786-.888 1.195-1.331.068-.104.171-.172.239-.273.376-.444.785-.854 1.161-1.298.102-.103.171-.204.273-.307.375-.444.751-.854 1.127-1.298.102-.103.204-.205.272-.341.376-.41.717-.82 1.093-1.264.103-.137.205-.239.308-.376l1.024-1.229c.102-.137.238-.273.341-.41.342-.409.683-.819.99-1.194.103-.137.238-.308.341-.444.329-.39.648-.788.956-1.195.137-.137.239-.308.376-.444.308-.375.615-.785.922-1.16.137-.171.272-.342.375-.478.308-.376.581-.752.889-1.161l.409-.513c.307-.375.58-.751.854-1.126.137-.171.272-.376.41-.546.272-.376.546-.752.853-1.127.137-.205.272-.376.409-.58.309-.41.581-.785.889-1.195.136-.171.238-.342.375-.513.41-.58.819-1.127 1.229-1.707.103-.136.58-.751.648-.888.41-.58.546-.819-.137-.819h-.272v-.005z"></path> </defs> <clipPath id="SVGID_20_"> <use xlink:href="#SVGID_19_" overflow="visible"></use> </clipPath> <linearGradient id="SVGID_21_" x1="-175.496" x2="-171.378" y1="177.463" y2="177.463" gradientTransform="matrix(0 -15.0984 -15.0984 0 2775.31 -2566.098)" gradientUnits="userSpaceOnUse"> <stop offset="0" stop-color="#9e9e9f"></stop> <stop offset="1" stop-color="#3e3b3a"></stop> </linearGradient> <path fill="url(#SVGID_21_)" d="M64.356 21.432h63.092v62.172H64.356V21.432z" clip-path="url(#SVGID_20_)"></path> <path fill="#4D4A49" d="M23.729 20.612C34.038 13.682 45.066 7.639 56.23 2.928c-.137.102-.273.171-.409.272-.308.205-.649.444-.957.648-2.39 1.604-4.813 3.176-7.203 4.78a209.943 209.943 0 0 0-5.702 3.927 132.533 132.533 0 0 0-5.633 4.165c-1.707 1.331-3.653 2.867-5.292 4.268-.137.136-.308.17-.478.136-2.274-.201-4.55-.372-6.827-.512m80.743 0C94.16 13.682 83.134 7.639 71.97 2.928c.137.102.273.171.409.272.308.205.648.444.956.648 2.39 1.604 4.814 3.176 7.203 4.78a209.943 209.943 0 0 1 5.702 3.927c1.911 1.331 3.79 2.73 5.634 4.165 1.707 1.331 3.653 2.867 5.291 4.268.138.136.308.17.479.136a232.36 232.36 0 0 1 6.828-.512"></path> <defs> <path id="SVGID_22_" d="M31.171 21.842s0-.034 0 0c0-.034 0 0 0 0m32.502 61.727c-4.712-3.38-9.32-6.828-13.725-10.379-1.229-.99-2.458-1.98-3.653-3.005l-.717-.614a11.732 11.732 0 0 1-.99-.854c-.376-.308-.751-.648-1.126-.956-.342-.273-.649-.58-.99-.854-.376-.308-.751-.649-1.127-.956-.341-.273-.648-.581-.989-.854-.376-.308-.718-.649-1.093-.956-.342-.272-.648-.581-.99-.854-.342-.308-.717-.648-1.092-.956-.308-.308-.649-.581-.957-.888-.341-.341-.717-.648-1.058-.99-.308-.308-.648-.58-.956-.888a28.026 28.026 0 0 0-1.024-.956c-.31-.305-.629-.602-.956-.888-.342-.308-.684-.648-1.024-.956a25.194 25.194 0 0 0-.956-.922c-.342-.341-.683-.648-.99-.99l-.922-.921-.989-.991-.922-.921-.99-.99c-.307-.307-.614-.614-.888-.922-.308-.341-.648-.648-.956-.989-.308-.308-.58-.615-.888-.957-.308-.341-.614-.647-.956-.989-.308-.308-.58-.649-.888-.956-.308-.341-.615-.683-.922-.99-.308-.308-.58-.648-.888-.955-.308-.343-.614-.684-.922-.991-.272-.307-.58-.647-.854-.955a25.122 25.122 0 0 1-.888-1.024c-.272-.342-.58-.649-.854-.99-.308-.342-.58-.683-.888-1.024-.273-.341-.546-.648-.819-.99-.273-.341-.581-.683-.854-1.023-.272-.342-.546-.648-.819-.99-.273-.341-.58-.683-.854-1.024-.273-.341-.546-.648-.819-.99a20.936 20.936 0 0 0-.854-1.023c-.272-.342-.546-.683-.785-.99l-.819-1.024c-.273-.341-.512-.683-.785-1.024a27.887 27.887 0 0 1-.819-1.058c-.273-.342-.513-.684-.785-1.024-.273-.342-.546-.684-.785-1.059a19.635 19.635 0 0 1-.752-1.024c-.272-.341-.512-.717-.785-1.058-.238-.344-.511-.686-.75-1.027-.205-.273-.409-.581-.615-.854-.102-.137-.58-.752-.648-.888-.409-.581-.546-.82.137-.82h20.28c.443 0 .751.035.99.444.034.068.238.443.375.683.171.342.376.683.546 1.024.171.341.342.648.513.989.171.342.376.684.547 1.024.171.308.341.649.512.956.171.342.376.683.546 1.024.171.308.342.649.513.956.171.342.375.683.546.99s.342.648.546.956c.171.341.376.683.547.99.171.307.375.648.546.956.171.341.375.683.58.989.171.308.376.615.546.956.205.342.376.683.58.99.171.308.376.615.547.956.205.342.409.683.58.99s.376.614.547.956c.204.341.409.648.58.99.205.307.376.614.58.956.205.341.41.648.581.989.204.308.375.649.58.957.205.341.409.647.615.989.204.308.375.615.58.922.205.341.409.648.614.989.205.309.376.615.581.922.204.342.409.648.614.99.205.308.376.614.58.922.205.342.41.648.648.99.205.308.41.614.581.922.204.341.409.648.648.99l.615.922c.204.341.443.648.648.99l.614.921c.205.342.444.649.648.99.197.302.402.598.615.888.238.342.443.649.683.99.205.308.409.58.614.888.239.342.444.648.684.99.205.308.409.58.614.888.239.341.443.648.683.989.205.309.41.581.615.889.238.311.467.63.683.956.205.307.409.58.648.888.239.341.478.648.717.956.205.308.41.58.649.888.238.341.478.648.717.99.204.272.409.58.648.854.239.341.512.648.751.989l.615.819c.238.342.512.648.751.99.205.273.409.547.648.854.239.341.513.648.751.956.205.273.444.546.649.819.272.342.512.649.785.99.204.272.409.546.648.819l.819 1.024c.205.238.41.511.615.785.272.342.58.683.854 1.023.204.239.409.479.58.752l.922 1.126c.171.205.342.444.513.649.341.409.683.819 1.058 1.263l.41.512c.479.581.956 1.127 1.468 1.707.068.068.103.137.137.171a.44.44 0 0 1 .137.342v.342s0 .034-.034.034h-.034c-.035.006-.069.006-.069-.029m.718.035c0-.035-.035-.035 0 0l-.034-.034v-.343c0-.137.034-.238.136-.341.068-.068.103-.137.172-.205 15.942-18.606 29.464-39.058 40.524-60.225.034-.034.034-.068.068-.104.103-.204.205-.375.238-.443.206-.41.548-.443.991-.443h20.245c.717 0 .547.272.137.819-.102.137-.581.751-.649.888-13.042 18.231-29.121 34.994-48.24 50.256l-1.536 1.229c-.342.272-.718.546-1.059.853-.273.205-.513.409-.786.615-.409.308-.819.648-1.229.956a8.169 8.169 0 0 1-.546.41c-.819.648-1.673 1.264-2.526 1.911-.205.137-.376.273-.581.409l-1.126.819c-.342.273-.717.513-1.059.785-.273.205-.581.41-.854.615l-2.15 1.537c-.035.034-.035.034-.068.034h-.068c.033.002.033.002 0 .002.033 0 0 0 0 0m5.222-82.282c.171.137.376.239.546.376.342.239.718.479 1.06.717.238.171.512.342.75.513.034 0 .034.034.068.034a189.498 189.498 0 0 1 32.127 17.445c.103.068.204.137.272.205-2.252.171-4.574.342-6.793.479a.893.893 0 0 1-.512-.137c-.069-.068-.138-.137-.206-.171.343.342.377.717.068 1.059a.487.487 0 0 1 .41-.205c2.355-.171 4.712-.341 7.101-.512.137 0 .273-.034.409-.034.172-.035.376-.103.41-.239.068-.273-.41-.546-.58-.649C93.818 12.828 82.45 6.718 70.569 1.801c17.343 3.79 35.949 10.072 55.786 18.846.067.034.102.068.171.068.034.034.137.068.137.137s-.137.068-.172.068h-19.527c-.376 0-.718 0-1.093.068h-.068a.264.264 0 0 0-.171.067s-.034 0-.034.035c-.034.034-.068.034-.103.067l-.034.035c-.034.034-.068.034-.103.068l-.034.034-.137.137c-.034.034-.034.067-.068.067l-.034.035a.254.254 0 0 0-.068.136c-10.993 21.168-24.444 41.55-40.32 60.157l-.034.034c-.067.068-.136.068-.205.034-.034-.034-.034-.068-.068-.102V51.067c0-.273.206-.479.41-.649-.546.376-.854.376-1.4-.034.239.171.479.376.479.684V81.76c0 .035-.034.068-.034.103-.068.068-.171.034-.205-.034l-.034-.034C47.626 63.289 34.208 42.873 23.18 21.739c-.034-.068-.067-.102-.102-.136l-.103-.103a1.179 1.179 0 0 0-.648-.409h-.033c-.375-.104-.717-.068-1.093-.068H1.673c-.034 0-.171 0-.171-.068s.103-.103.137-.137c.068-.034.103-.068.171-.068C21.646 11.872 40.253 5.591 57.596 1.801c-11.881 4.882-23.25 11.027-34.175 18.368-.137.102-.648.375-.581.648.035.171.239.239.444.239.103 0 .239.034.376.034 2.355.171 4.711.342 7.101.513.171 0 .308.067.409.204-.307-.375-.307-.751.035-1.058-.068.067-.137.136-.205.171-.137.136-.308.171-.478.136a456.85 456.85 0 0 0-6.794-.478c.103-.068.204-.137.272-.205A193.814 193.814 0 0 1 56.162 2.894h.034c.239-.171.512-.342.751-.513.342-.238.717-.478 1.059-.717.171-.136.376-.239.547-.375.341-.239.717-.376 1.092-.479C41.311 4.634 21.543 11.292.376 20.749c-.308.137-.376.478-.205.751 16.251 23.25 37.351 44.11 63.332 62.581.171.136.375.171.58.171s.409-.068.581-.171C90.61 65.61 111.744 44.75 127.995 21.5a.523.523 0 0 0-.205-.751C106.622 11.292 86.855 4.668 68.521.845c.375.068.751.239 1.092.477"></path> </defs> <clipPath id="SVGID_23_"> <use xlink:href="#SVGID_22_" overflow="visible"></use> </clipPath> <linearGradient id="SVGID_24_" x1="-161.99" x2="-157.874" y1="181.465" y2="181.465" gradientTransform="matrix(0 -20.2636 -20.2636 0 3741.257 -3198.266)" gradientUnits="userSpaceOnUse"> <stop offset="0" stop-color="#727172"></stop> <stop offset=".781" stop-color="#231815"></stop> <stop offset="1" stop-color="#231815"></stop> </linearGradient> <path fill="url(#SVGID_24_)" d="M0 .845h128.2v83.407H0V.845z" clip-path="url(#SVGID_23_)"></path> <defs> <path id="SVGID_25_" d="M22.191 20.988c.034 0 .103.034.137.034h.034c.068 0 .103.034.171.068.033 0 .033 0 .033.034.035 0 .035.033.068.033.068.035.103.068.171.104l.034.034.035.034.136.137.103.102c.034.035.068.103.103.137 10.993 21.168 24.445 41.55 40.32 60.157l.035.034c.034.068.136.068.204.034.034-.034.034-.068.034-.103V51.135c0-.308-.204-.512-.478-.683-12.359-8.774-23.079-18.3-32.161-28.645-.137-.137-.239-.205-.444-.205-2.355-.171-4.711-.341-7.102-.512-.442-.034-.954-.068-1.433-.102z"></path> </defs> <clipPath id="SVGID_26_"> <use xlink:href="#SVGID_25_" overflow="visible"></use> </clipPath> <linearGradient id="SVGID_27_" x1="-111.47" x2="-107.353" y1="111.706" y2="111.706" gradientTransform="matrix(10.118 0 0 -10.118 1150.05 1181.734)" gradientUnits="userSpaceOnUse"> <stop offset="0" stop-color="#fff"></stop> <stop offset=".225" stop-color="#fff"></stop> <stop offset="1" stop-color="#888"></stop> </linearGradient> <path fill="url(#SVGID_27_)" d="M22.191 20.988h41.652v61.011H22.191V20.988z" clip-path="url(#SVGID_26_)"></path> <path fill="#FFF" d="M64.356 51.135v30.728c0 .033.034.068.067.103.068.067.172.034.205-.035l.035-.034c15.877-18.608 29.327-38.991 40.32-60.159.034-.068.068-.102.103-.137l.034-.034c.034-.034.034-.068.068-.068.034-.034.068-.103.137-.137l.034-.034c.034-.034.068-.068.103-.068l.033-.034c.035-.034.068-.034.104-.068 0 0 .034 0 .034-.033.068-.035.103-.035.171-.068.068 0 .103-.034.171-.034-.512.034-.989.067-1.503.103-2.354.171-4.711.341-7.101.512-.171 0-.308.068-.443.205-9.082 10.311-19.837 19.87-32.162 28.645-.205.134-.41.373-.41.647"></path> </svg>