<svg xmlns="http://www.w3.org/2000/svg" viewBox="0 0 120 31.253" class="logo w-full">
  <g fill="currentColor">
    <path d="M115.413 5.043a2.041 2.041 0 1 1 4.081 0 2.041 2.041 0 1 1-4.081 0m2.044 2.521a2.52 2.52 0 1 0-2.552-2.521 2.512 2.512 0 0 0 2.552 2.521m-.531-2.323h.505l.762 1.261h.492l-.823-1.28a.754.754 0 0 0 .752-.8c0-.572-.341-.824-1.024-.824h-1.1v2.9h.439Zm0-.369v-.9h.6c.3 0 .63.067.63.428 0 .447-.332.474-.7.474Z"></path>
    <path d="M42.214 2.888 22.592 31.181h5.168a6.807 6.807 0 0 0 5.547-2.88l2.718-3.9 10.288.063-.118 6.712h7.88L54.081.02s-4.427.013-6.64.013a6.045 6.045 0 0 0-5.227 2.855m-.92 13.855 5.019-7.151.063 7.151Z"></path>
    <path d="M34.22 0a5.979 5.979 0 0 0-5.127 2.888L9.369 31.2s3.344.014 5.8.014c3.093 0 5.013-2.917 5.013-2.917L39.708.049S35.274.014 34.22 0"></path>
    <path d="M24.424.033a4.853 4.853 0 0 0-4.018 1.945C18.732 4.31 0 31.187 0 31.187l2.468.03a4.56 4.56 0 0 0 3.9-2.069L26.559.029Z"></path>
    <path d="M103.533 4.719a13.257 13.257 0 0 0-11.73 7.089L91.814.044l-7.581-.02v7.56a13.214 13.214 0 0 0-20.056 4.745L64.188.044l-7.562-.02v31.157h7.543v-7.479a13.213 13.213 0 0 0 20.064 4.759v2.72h7.543l.008-7.066a13.253 13.253 0 0 0 23.112.682l-5.914-3.554a6.353 6.353 0 0 1-11.45-1.174l19.047.031a13.208 13.208 0 0 0-13.046-15.381M76.121 24.351a6.332 6.332 0 1 1 6.332-6.332 6.338 6.338 0 0 1-6.332 6.332m21.906-9.546a6.344 6.344 0 0 1 11.017.014Z"></path>
  </g>
</svg>

