<svg xmlns="http://www.w3.org/2000/svg" xmlns:xlink="http://www.w3.org/1999/xlink" width="300" height="300" viewBox="0 0 300 300">
  <defs>
    <clipPath id="clip-dethleffs-logo">
      <rect width="300" height="300"/>
    </clipPath>
  </defs>
  <g id="dethleffs-logo" clip-path="url(#clip-dethleffs-logo)">
    <g id="layer1" transform="translate(387.201 -286.324)">
      <path id="path1085" d="M209.229,417.333l-3.595,9.4c-3.1-1.064-6.777-.532-8.517,4.36l-1.826,5.1H201.3l-1.708,4.688h-6.011l-5.748,15.855H176.665l5.834-15.888h-3.506l1.652-4.684h3.538l2.652-7.192c3.182-8.6,6.659-13.438,15.7-13.438A12.737,12.737,0,0,1,209.229,417.333Z" transform="translate(-364.022)" fill="#b0062a"/>
      <path id="path1087" d="M276.732,417.333l-3.6,9.4c-3.118-1.064-6.805-.532-8.542,4.36l-1.826,5.1h7.279l-1.68,4.688h-7.279l-5.748,15.855h-11.2l5.834-15.888h-3.506l1.683-4.684h3.5l2.655-7.192c3.18-8.6,6.661-13.438,15.737-13.438A12.905,12.905,0,0,1,276.732,417.333Z" transform="translate(-409.423)" fill="#b0062a"/>
      <path id="path1089" d="M346.507,443.652l-2.21,6.6a10.626,10.626,0,0,0-5.9-1.5c-1.648,0-4.563,1.118-4.563,3.093,0,3.477,8.425,5.161,8.279,11.139-.174,7.635-8.457,11.228-15.116,11.228-4.748,0-9.606-1.208-12.76-3.21l2.121-6.688a20.308,20.308,0,0,0,9.133,2.239c2.182,0,4.243-1.064,4.243-3.273,0-2.769-7.987-6.04-7.987-11.108,0-8.718,6.663-11.228,14.059-11.228A29.072,29.072,0,0,1,346.507,443.652Z" transform="translate(-456.594 -17.096)" fill="#b0062a"/>
      <path id="path1091" d="M-114.794,426.035h7.19l-3.3,9.25h-7.277l-2.595,7.193c-.794,2.265,0,4.211,2.947,4.211a12.03,12.03,0,0,0,2.947-.237l-3.093,8.752a13.319,13.319,0,0,1-8.578,3.1c-7.866,0-8.371-7.871-6.246-13.44l3.242-8.93H-135.3l23.6-18.417Z" transform="translate(-154.101 -1.333)" fill="#b0062a"/>
      <path id="path1093" d="M-48.956,416.785l-4.479,12.2c2.356-1.769,4.979-2.712,9.048-2.712,4.331,0,8.724,4.3,6.481,10.459l-7.574,20.841H-56.589l7.453-20.515c.918-2.5-.79-3.623-2.974-3.652-2.091,0-3.419,1.354-4.244,3.536l-7.485,20.631H-74.859L-60.1,416.785Z" transform="translate(-194.773 -0.842)" fill="#b0062a"/>
      <path id="path1095" d="M50.977,416.883,36.183,457.612H25.045L39.9,416.883Z" transform="translate(-261.997 -0.908)" fill="#b0062a"/>
      <path id="path1097" d="M-321.557,431.7c0,11.82-12.463,25.94-27.552,25.94h-15.205l7.72-21.313h12.112l-2.123,5.924,3.154-.03c3.508-.029,6.661-3.332,6.661-6.273,0-2.18-.409-4.661-4.773-4.661h-13.142l5.216-14.408h12.728C-327.889,416.883-321.557,423.516-321.557,431.7Z" transform="translate(0 -0.908)" fill="#b0062a"/>
      <path id="path1099" d="M-205.161,452.981a12.76,12.76,0,0,1-1.858,6.983l-17.68.027a8.083,8.083,0,0,0-.739,4.686c.324,2.712,2.975,4.1,5.481,4.1a8.036,8.036,0,0,0,6.19-2.83l4.6-.03c-3.129,5.746-7.723,9.87-15.71,9.928-7.485.064-12.051-5.066-12.051-10.222,0-11.818,10.286-22.251,21.129-22.251C-209.907,443.373-205.252,446.849-205.161,452.981Zm-12.144-1.477c-1.474,0-3.123.3-5.273,3.981h8.1C-213.915,453.245-215.066,451.5-217.305,451.5Z" transform="translate(-85.716 -18.733)" fill="#b0062a"/>
      <path id="path1101" d="M115.493,452.981a12.958,12.958,0,0,1-1.856,6.983l-17.682.027a8.376,8.376,0,0,0-.764,4.686c.352,2.712,2.976,4.1,5.51,4.1a8.032,8.032,0,0,0,6.188-2.83l4.6-.03c-3.121,5.746-7.722,9.87-15.707,9.928-7.483.064-12.08-5.066-12.08-10.222,0-11.818,10.313-22.251,21.156-22.251C110.749,443.373,115.4,446.849,115.493,452.981ZM103.351,451.5c-1.474,0-3.123.3-5.273,3.981h8.1C106.741,453.245,105.593,451.5,103.351,451.5Z" transform="translate(-301.465 -18.733)" fill="#b0062a"/>
    </g>
  </g>
</svg>
