<svg xmlns="http://www.w3.org/2000/svg" width="327" height="60" viewBox="0 0 327 60">
  <g fill="none" fill-rule="evenodd">
    <path fill="#1D3661" d="M317.6327 58.8088l-7.1793-11.9102h-3.442v11.9102h-8.9008V29.5701h8.9008v11.3104h3.442l6.9273-11.3104h10.0791l-9.1105 14.3194 9.6144 14.9193zm-34.4694 0V29.5701h8.8998v29.2387zM269.093 29.57v19.5294C259.5632 29.57 259.5632 29.57 247.304 29.57v29.2387h8.0633V38.7665l-.006-.0713.006.0124.0524.1032 1.7135 3.6253c7.776 16.3685 8.539 16.3747 19.9837 16.3747V29.5701h-8.024zm-41.6114 29.7972c-13.266 0-14.3122-1.503-14.3122-14.8748 0-13.9747 1.9734-15.4839 14.3122-15.4839s14.275 1.506 14.275 15.4839c0 13.3719-1.008 14.8748-14.275 14.8748zm5.0395-15.0916c0-9.2439-.2943-9.2439-4.8278-9.2439h-.383c-4.5356 0-4.8692 0-4.8692 9.244v.386c0 8.643.0423 8.643 4.8692 8.643h.379c4.7442 0 4.8278 0 4.8278-8.643l.004-.386zM199.349 58.8088l-3.5277-10.877h-6.2974v10.877h-8.8998V29.57h16.457c6.8014 0 10.8734.6028 10.8734 9.4606 0 4.9445-1.134 7.1814-3.6527 8.1703l4.7866 11.6078h-9.7394zm-4.577-23.6862h-5.247v7.2258h5.373c3.317 0 3.82 0 3.82-3.4405 0-3.7853-.5876-3.7853-3.946-3.7853zm-35.8984 23.6862h8.9845V36.1342c-3.3956.4573-6.9546 1.2955-8.9845 2.8335v19.841zM150.2247 29.57v6.02h26.3245v-6.02h-26.3246zm-13.0211 29.2388V29.5701h8.9008v29.2387zm-14.9493 0V46.8986h-9.7394v11.9102h-8.9008V29.5701h8.9008v11.3104h9.7394V29.5701h8.9432v29.2387zm-40.3928 0h8.9845V36.132c-3.3957.4573-6.9546 1.2955-8.9845 2.8336v19.843zM73.2147 29.57v6.019H99.537v-6.0188H73.2147z"/>
    <path fill="#CE132D" d="M.8881 59.1936c21.9484-12.9224 42.0007-33.6 53.1334-58.856-5.1518 24.959-12.7413 41.5485-23.9329 57.4851-6.6861-.0793-20.6731.4485-29.2005 1.3709zm40.764-1.192C49.6318 41.155 54.2044 19.9893 55.2631.176a116.9433 116.9433 0 0 1 5.6904 59.0909c-6.864-.6743-12.6996-1.0678-19.3014-1.2651z"/>
  </g>
</svg>
